<svg xmlns="http://www.w3.org/2000/svg" version="1.1" xmlns:xlink="http://www.w3.org/1999/xlink" xmlns:svgjs="http://svgjs.dev/svgjs" width="2000" height="550" viewBox="0 0 2000 550"><g transform="matrix(1,0,0,1,-1.2121212121212466,0.4889766691173918)"><svg viewBox="0 0 396 109" data-background-color="#ffffff" preserveAspectRatio="xMidYMid meet" height="550" width="2000" xmlns="http://www.w3.org/2000/svg" xmlns:xlink="http://www.w3.org/1999/xlink"><g id="tight-bounds" transform="matrix(1,0,0,1,0.2400000000000091,-0.09690628533417112)"><svg viewBox="0 0 395.52 109.19381257066837" height="109.19381257066837" width="395.52"><g><svg viewBox="0 0 532.8175486441238 147.0984515094292" height="109.19381257066837" width="395.52"><g transform="matrix(1,0,0,1,135.31994864412388,0)"><svg viewBox="0 0 397.4975999999999 147.0984515094292" height="147.0984515094292" width="397.4975999999999"><g id="textblocktransform"><svg viewBox="0 0 397.4975999999999 147.0984515094292" height="147.0984515094292" width="397.4975999999999" id="textblock"><g><rect width="397.4975999999999" height="7.852509722810876" x="0" y="96.32529833109373" fill="#2ecc71" opacity="1" stroke-width="0" stroke="transparent" fill-opacity="1" class="rect-qz-0" data-fill-palette-color="primary" rx="1%" id="qz-0" data-palette-color="#2ecc71"></rect></g><g transform="matrix(1,0,0,1,0.9887999999999693,0)"><svg viewBox="0 0 395.52 87.07495965238982" height="87.07495965238982" width="395.52"><g transform="matrix(1,0,0,1,0,0)"><svg width="395.52" viewBox="3.8299999999999996 -39.84 238.30999999999997 51.95" height="87.07495965238982" data-palette-color="#2ecc71"><g class="wordmark-text-0" data-fill-palette-color="primary" id="text-0"><path d="M4.27-0.37L3.86-9.08Q3.86-9.11 3.85-9.13 3.83-9.16 3.83-9.18L3.83-9.18Q3.83-9.59 4.27-9.59L4.27-9.59Q4.49-9.59 4.76-9.38L4.76-9.38Q6.08-8.13 7.69-7.4 9.3-6.67 11.21-6.67L11.21-6.67Q11.72-6.67 12.38-6.77 13.04-6.88 13.62-7.14 14.21-7.4 14.61-7.81 15.01-8.23 15.01-8.86L15.01-8.86Q15.01-9.57 14.67-10.13 14.33-10.69 13.77-11.08L13.77-11.08Q13.55-11.23 13.11-11.57 12.67-11.91 12.11-12.35 11.55-12.79 10.94-13.29 10.33-13.79 9.78-14.25 9.23-14.7 8.79-15.06 8.35-15.43 8.13-15.63L8.13-15.63Q6.69-16.7 5.85-17.8 5-18.9 4.57-20.09 4.13-21.29 4-22.57 3.88-23.85 3.88-25.29L3.88-25.29Q3.88-27.44 4.91-29.37 5.93-31.3 7.8-32.73 9.67-34.16 12.28-35 14.89-35.84 18.09-35.84L18.09-35.84Q18.48-35.84 19.26-35.75 20.04-35.67 20.98-35.47 21.92-35.28 22.9-34.94 23.88-34.59 24.68-34.06L24.68-34.06Q24.95-33.86 25.11-33.67 25.27-33.47 25.32-33.06L25.32-33.06Q25.44-31.08 25.51-29.16 25.59-27.25 25.71-25.1L25.71-25.1Q25.71-24.68 25.54-24.55 25.37-24.41 25.1-24.41L25.1-24.41Q24.83-24.41 24.68-24.56L24.68-24.56Q23.97-25.27 23.22-25.95 22.46-26.64 21.63-27.16 20.8-27.69 19.86-28 18.92-28.32 17.82-28.32L17.82-28.32Q17.16-28.32 16.5-28.21 15.84-28.1 15.31-27.81 14.77-27.51 14.44-27 14.11-26.49 14.11-25.71L14.11-25.71Q14.11-24.88 14.32-24.27 14.53-23.66 15.36-23.12L15.36-23.12 21.22-19.14Q22.83-17.99 23.83-16.86 24.83-15.72 25.39-14.6 25.95-13.48 26.16-12.39 26.37-11.3 26.37-10.25L26.37-10.25Q26.37-8.54 25.81-7.03 25.24-5.52 24.27-4.24 23.29-2.95 21.98-1.94 20.68-0.93 19.19-0.21 17.7 0.51 16.1 0.89 14.5 1.27 12.96 1.27L12.96 1.27Q11.77 1.27 10.61 1.23 9.45 1.2 8.35 1.04 7.25 0.88 6.23 0.55 5.2 0.22 4.27-0.37L4.27-0.37ZM40.74-17.41L40.67-17.04Q40.52-14.7 40.41-13.23 40.31-11.77 40.23-10.85 40.16-9.94 40.11-9.41 40.06-8.89 40.04-8.42L40.04-8.42Q40.6-6.96 41.7-6.04 42.8-5.13 44.33-5.13L44.33-5.13Q45.68-5.13 46.69-5.97 47.7-6.81 48.37-8.15 49.05-9.5 49.39-11.16 49.73-12.82 49.73-14.45L49.73-14.45Q49.73-15.8 49.5-16.94 49.27-18.09 48.8-18.93 48.34-19.78 47.64-20.25 46.95-20.73 45.99-20.73L45.99-20.73Q45.21-20.73 44.44-20.42 43.67-20.12 42.97-19.64 42.26-19.17 41.68-18.57 41.11-17.97 40.74-17.41L40.74-17.41ZM41.16-24.19L41.16-24.19Q43.21-25.59 45.46-26.42 47.7-27.25 50.14-27.25L50.14-27.25Q52.44-27.25 54.11-26.31 55.78-25.37 56.88-23.77 57.98-22.17 58.51-20.09 59.03-18.02 59.03-15.75L59.03-15.75Q59.03-13.77 58.64-11.74 58.25-9.72 57.49-7.82 56.74-5.93 55.61-4.27 54.49-2.61 53.04-1.38 51.58-0.15 49.8 0.56 48.02 1.27 45.94 1.27L45.94 1.27Q44.11 1.27 42.44 0.54 40.77-0.2 39.3-1.37L39.3-1.37Q39.3-1.25 39.24-0.48 39.18 0.29 39.08 1.39 38.99 2.49 38.86 3.75 38.74 5 38.64 6.1 38.55 7.2 38.49 7.97 38.43 8.74 38.43 8.86L38.43 8.86Q38.43 9.06 38.44 9.19 38.45 9.33 38.45 9.45L38.45 9.45Q38.45 9.64 38.27 9.78 38.08 9.91 37.45 10.08L37.45 10.08 31.03 11.72Q30.76 11.79 30.32 11.95 29.88 12.11 29.47 12.11L29.47 12.11Q29.12 12.11 28.87 11.94 28.61 11.77 28.61 11.3L28.61 11.3 31.59-24.44Q31.66-25.24 31.77-25.55 31.88-25.85 32.32-25.95L32.32-25.95Q34.54-26.39 36.89-26.84 39.23-27.29 41.45-28L41.45-28Q41.65-28 41.68-27.94 41.72-27.88 41.72-27.76L41.72-27.76Q41.72-27.71 41.71-27.61 41.7-27.51 41.64-27.17 41.57-26.83 41.46-26.14 41.35-25.44 41.16-24.19ZM62.74-10.35L62.74-10.35Q63.06-13.7 63.37-16.97 63.69-20.24 63.94-23.68L63.94-23.68Q63.98-24.49 64.09-24.79 64.2-25.1 64.64-25.2L64.64-25.2Q66.72-25.61 68.99-26.06 71.26-26.51 73.38-27.22L73.38-27.22Q73.46-27.25 73.6-27.25L73.6-27.25Q73.87-27.25 73.87-27.05L73.87-27.05 71.67-3.27Q71.6-2.47 71.5-2.16 71.41-1.86 70.97-1.76L70.97-1.76Q68.89-1.12 66.77-0.34 64.64 0.44 62.28 1.25L62.28 1.25Q62.2 1.27 62.06 1.27L62.06 1.27Q61.79 1.27 61.79 1.03L61.79 1.03Q61.79 1 61.84 0.37 61.88-0.27 61.97-1.27 62.06-2.27 62.15-3.52 62.25-4.76 62.36-6.01 62.47-7.25 62.57-8.4 62.67-9.55 62.74-10.35ZM64.57-29.83L64.57-29.83Q64.64-30.88 64.68-31.45 64.72-32.01 64.74-32.29 64.77-32.57 64.77-32.64 64.77-32.71 64.78-32.75 64.79-32.79 64.8-32.9 64.81-33.01 64.84-33.36 64.86-33.72 64.91-34.4 64.96-35.08 65.06-36.28L65.06-36.28Q65.11-37.08 65.22-37.39 65.33-37.7 65.77-37.79L65.77-37.79Q67.84-38.21 70.11-38.66 72.38-39.11 74.51-39.82L74.51-39.82Q74.58-39.84 74.73-39.84L74.73-39.84Q74.8-39.7 74.92-39.65L74.92-39.65 75-39.6 74.46-32.91Q74.38-32.1 74.27-31.79 74.16-31.47 73.75-31.4L73.75-31.4Q71.67-31.01 69.55-30.54 67.43-30.08 65.06-29.61L65.06-29.61Q64.99-29.59 64.84-29.59L64.84-29.59Q64.57-29.59 64.57-29.83ZM103.24-0.78L97.31 0.88Q97.04 0.95 96.6 1.11 96.16 1.27 95.74 1.27L95.74 1.27Q95.4 1.27 95.15 1.1 94.89 0.93 94.89 0.51L94.89 0.51 94.89 0.37Q95.04-0.95 95.13-1.87 95.23-2.78 95.32-3.53 95.4-4.27 95.46-5.02 95.52-5.76 95.62-6.75 95.72-7.74 95.85-9.09 95.99-10.45 96.18-12.48L96.18-12.48Q96.31-13.72 96.4-15.01 96.5-16.31 96.5-17.41L96.5-17.41Q96.5-18.14 96.39-18.76 96.28-19.38 96-19.84 95.72-20.29 95.23-20.53 94.74-20.78 93.99-20.78L93.99-20.78Q93.43-20.78 92.44-20.53 91.45-20.29 90.47-19.73 89.49-19.17 88.74-18.25 87.98-17.33 87.88-15.99L87.88-15.99Q87.74-14.18 87.61-12.9 87.49-11.62 87.39-10.73 87.3-9.84 87.24-9.28 87.18-8.72 87.15-8.33L87.15-8.33Q87.13-8.23 87.08-7.79 87.03-7.35 86.97-6.74 86.91-6.13 86.85-5.44 86.78-4.76 86.72-4.15 86.66-3.54 86.63-3.1 86.59-2.66 86.59-2.56L86.59-2.56Q86.59-2.37 86.6-2.23 86.61-2.1 86.61-1.98L86.61-1.98Q86.61-1.78 86.43-1.65 86.25-1.51 85.61-1.34L85.61-1.34 79.14 0.88Q78.87 0.98 78.43 1.12 78 1.27 77.58 1.27L77.58 1.27Q77.24 1.27 76.98 1.1 76.73 0.93 76.73 0.51L76.73 0.51 78.95-24.44Q79.02-25.24 79.13-25.55 79.24-25.85 79.68-25.95L79.68-25.95Q81.9-26.39 84.25-26.84 86.59-27.29 88.81-28L88.81-28Q89.01-28 89.04-27.94 89.08-27.88 89.08-27.76L89.08-27.76Q89.08-27.71 89.07-27.61 89.06-27.51 88.99-27.17 88.93-26.83 88.82-26.14 88.71-25.44 88.52-24.19L88.52-24.19Q90.2-25.17 91.68-25.77 93.16-26.37 94.46-26.7 95.77-27.03 96.92-27.14 98.06-27.25 99.06-27.25L99.06-27.25Q102.51-27.25 104.07-25.16 105.63-23.07 105.63-18.9L105.63-18.9Q105.63-18.31 105.61-17.69 105.58-17.07 105.51-16.41L105.51-16.41 104.39-5.91Q104.26-4.88 104.24-4.02 104.22-3.15 104.22-2L104.22-2Q104.22-1.81 104.23-1.67 104.24-1.54 104.24-1.44L104.24-1.44Q104.24-1.22 104.06-1.1 103.87-0.98 103.24-0.78L103.24-0.78ZM140.59-25.37L140.59-25.37Q140.57-23.27 140.19-21.61 139.81-19.95 139.11-18.62 138.42-17.29 137.43-16.22 136.44-15.16 135.17-14.23L135.17-14.23Q132.73-12.48 129.82-11.58 126.92-10.69 123.99-10.69L123.99-10.69Q123.5-10.69 123.02-10.72 122.55-10.74 122.06-10.79L122.06-10.79 121.25-1.88 120.84-1.12Q120.79-1.03 120.01-0.73 119.23-0.44 118.06-0.05L118.06-0.05 116.52 0.46Q115.79 0.73 115.22 0.95 114.66 1.17 114.17 1.34 113.69 1.51 113.22 1.6 112.76 1.68 112.25 1.68L112.25 1.68Q111.9 1.68 111.71 1.51 111.51 1.34 111.51 0.85L111.51 0.85 111.78-3.32Q111.86-4.57 111.97-5.82 112.07-7.08 112.17-8.69L112.17-8.69 112.64-14.53Q112.78-16.31 112.91-18.09 113.03-19.87 113.15-21.48 113.27-23.1 113.37-24.5 113.47-25.9 113.54-26.95L113.54-26.95Q112.22-26.66 111.43-26.53 110.63-26.39 110.22-26.39L110.22-26.39Q109.71-26.39 109.71-26.83L109.71-26.83Q110.05-28.03 110.34-29.17L110.34-29.17Q110.61-30.15 110.89-31.19 111.17-32.23 111.37-32.93L111.37-32.93Q111.49-33.37 111.65-33.61 111.81-33.84 112.06-33.97 112.32-34.11 112.72-34.22 113.12-34.33 113.71-34.52L113.71-34.52Q114.17-34.67 115.02-34.85 115.86-35.03 116.95-35.22 118.03-35.4 119.3-35.57 120.57-35.74 121.88-35.88 123.18-36.01 124.45-36.1 125.72-36.18 126.85-36.18L126.85-36.18Q129.63-36.18 132.12-35.67 134.61-35.16 136.49-33.92 138.37-32.69 139.48-30.6 140.59-28.52 140.59-25.37ZM122.74-18.04L122.74-18.04Q122.74-17.77 122.84-17.57 122.94-17.36 123.38-17.36L123.38-17.36Q124.06-17.36 125-17.66 125.94-17.97 126.88-18.58 127.82-19.19 128.63-20.09 129.43-21 129.85-22.22L129.85-22.22Q130.02-22.71 130.13-23.46 130.24-24.22 130.24-25.24L130.24-25.24Q130.24-26.95 129.05-27.76 127.87-28.56 125.97-28.56L125.97-28.56Q125.65-28.56 125.25-28.53 124.84-28.49 124.49-28.39 124.14-28.3 123.89-28.16 123.65-28.03 123.62-27.81L123.62-27.81 123.57-27.27Q123.55-26.95 123.48-26.23 123.4-25.51 123.32-24.58 123.23-23.66 123.15-22.63 123.06-21.61 122.98-20.68 122.89-19.75 122.83-19.04 122.77-18.33 122.74-18.04ZM155.51 1.27L155.51 1.27Q152.06 1.27 149.46 0.15 146.86-0.98 145.1-2.84 143.35-4.71 142.47-7.14 141.59-9.57 141.59-12.18L141.59-12.18Q141.59-14.79 142.44-17.15 143.3-19.51 144.84-21.37 146.37-23.24 148.52-24.5 150.67-25.76 153.26-26.2L153.26-26.2Q153.65-26.22 153.65-26.37L153.65-26.37Q153.65-26.64 153.59-26.87 153.53-27.1 153.53-27.27L153.53-27.27Q153.53-27.54 153.63-27.64 153.72-27.73 153.84-27.73L153.84-27.73Q158.51-27.73 161.78-26.67 165.05-25.61 167.1-23.78 169.15-21.95 170.08-19.46 171.01-16.97 171.01-14.11L171.01-14.11Q171.01-10.47 169.79-7.62 168.57-4.76 166.45-2.78 164.34-0.81 161.52 0.23 158.7 1.27 155.51 1.27ZM150.99-12.45L150.99-12.45Q150.99-11.13 151.27-9.84 151.55-8.54 152.2-7.5 152.84-6.45 153.89-5.8 154.94-5.15 156.51-5.15L156.51-5.15Q157.63-5.2 158.47-5.65 159.31-6.1 159.92-6.82 160.53-7.54 160.94-8.45 161.34-9.35 161.57-10.31 161.8-11.28 161.9-12.21 162-13.13 162-13.89L162-13.89Q162-15.16 161.62-16.38 161.24-17.6 160.51-18.53 159.78-19.46 158.69-20.03 157.6-20.61 156.19-20.61L156.19-20.61Q154.72-20.61 153.72-19.74 152.72-18.87 152.12-17.6 151.53-16.33 151.26-14.93 150.99-13.53 150.99-12.45ZM174.77-10.35L174.77-10.35Q175.08-13.7 175.4-16.97 175.72-20.24 175.96-23.68L175.96-23.68Q176.01-24.49 176.12-24.79 176.23-25.1 176.67-25.2L176.67-25.2Q178.74-25.61 181.02-26.06 183.29-26.51 185.41-27.22L185.41-27.22Q185.48-27.25 185.63-27.25L185.63-27.25Q185.9-27.25 185.9-27.05L185.9-27.05 183.7-3.27Q183.63-2.47 183.53-2.16 183.43-1.86 182.99-1.76L182.99-1.76Q180.92-1.12 178.79-0.34 176.67 0.44 174.3 1.25L174.3 1.25Q174.23 1.27 174.08 1.27L174.08 1.27Q173.81 1.27 173.81 1.03L173.81 1.03Q173.81 1 173.86 0.37 173.91-0.27 174-1.27 174.08-2.27 174.18-3.52 174.28-4.76 174.39-6.01 174.5-7.25 174.59-8.4 174.69-9.55 174.77-10.35ZM176.6-29.83L176.6-29.83Q176.67-30.88 176.71-31.45 176.74-32.01 176.77-32.29 176.79-32.57 176.79-32.64 176.79-32.71 176.8-32.75 176.82-32.79 176.83-32.9 176.84-33.01 176.86-33.36 176.89-33.72 176.94-34.4 176.99-35.08 177.08-36.28L177.08-36.28Q177.13-37.08 177.24-37.39 177.35-37.7 177.79-37.79L177.79-37.79Q179.87-38.21 182.14-38.66 184.41-39.11 186.53-39.82L186.53-39.82Q186.61-39.84 186.75-39.84L186.75-39.84Q186.83-39.7 186.95-39.65L186.95-39.65 187.02-39.6 186.48-32.91Q186.41-32.1 186.3-31.79 186.19-31.47 185.78-31.4L185.78-31.4Q183.7-31.01 181.58-30.54 179.45-30.08 177.08-29.61L177.08-29.61Q177.01-29.59 176.86-29.59L176.86-29.59Q176.6-29.59 176.6-29.83ZM215.27-0.78L209.33 0.88Q209.06 0.95 208.63 1.11 208.19 1.27 207.77 1.27L207.77 1.27Q207.43 1.27 207.17 1.1 206.92 0.93 206.92 0.51L206.92 0.51 206.92 0.37Q207.06-0.95 207.16-1.87 207.26-2.78 207.34-3.53 207.43-4.27 207.49-5.02 207.55-5.76 207.65-6.75 207.75-7.74 207.88-9.09 208.01-10.45 208.21-12.48L208.21-12.48Q208.33-13.72 208.43-15.01 208.53-16.31 208.53-17.41L208.53-17.41Q208.53-18.14 208.42-18.76 208.31-19.38 208.03-19.84 207.75-20.29 207.26-20.53 206.77-20.78 206.01-20.78L206.01-20.78Q205.45-20.78 204.46-20.53 203.47-20.29 202.5-19.73 201.52-19.17 200.76-18.25 200.01-17.33 199.91-15.99L199.91-15.99Q199.76-14.18 199.64-12.9 199.52-11.62 199.42-10.73 199.32-9.84 199.26-9.28 199.2-8.72 199.18-8.33L199.18-8.33Q199.15-8.23 199.1-7.79 199.05-7.35 198.99-6.74 198.93-6.13 198.87-5.44 198.81-4.76 198.75-4.15 198.69-3.54 198.65-3.1 198.62-2.66 198.62-2.56L198.62-2.56Q198.62-2.37 198.63-2.23 198.64-2.1 198.64-1.98L198.64-1.98Q198.64-1.78 198.46-1.65 198.27-1.51 197.64-1.34L197.64-1.34 191.17 0.88Q190.9 0.98 190.46 1.12 190.02 1.27 189.61 1.27L189.61 1.27Q189.26 1.27 189.01 1.1 188.75 0.93 188.75 0.51L188.75 0.51 190.97-24.44Q191.05-25.24 191.16-25.55 191.27-25.85 191.71-25.95L191.71-25.95Q193.93-26.39 196.27-26.84 198.62-27.29 200.84-28L200.84-28Q201.03-28 201.07-27.94 201.11-27.88 201.11-27.76L201.11-27.76Q201.11-27.71 201.09-27.61 201.08-27.51 201.02-27.17 200.96-26.83 200.85-26.14 200.74-25.44 200.54-24.19L200.54-24.19Q202.23-25.17 203.71-25.77 205.18-26.37 206.49-26.7 207.8-27.03 208.94-27.14 210.09-27.25 211.09-27.25L211.09-27.25Q214.53-27.25 216.1-25.16 217.66-23.07 217.66-18.9L217.66-18.9Q217.66-18.31 217.63-17.69 217.61-17.07 217.54-16.41L217.54-16.41 216.41-5.91Q216.29-4.88 216.27-4.02 216.24-3.15 216.24-2L216.24-2Q216.24-1.81 216.25-1.67 216.27-1.54 216.27-1.44L216.27-1.44Q216.27-1.22 216.08-1.1 215.9-0.98 215.27-0.78L215.27-0.78ZM239.04-18.82L234.5-18.82Q234.16-16.26 233.85-13.71 233.55-11.16 233.48-8.94L233.48-8.94Q233.48-7.98 233.62-7.35 233.77-6.71 234.05-6.35 234.33-5.98 234.72-5.82 235.11-5.66 235.6-5.66L235.6-5.66Q236.38-5.66 237.31-5.9 238.24-6.13 239.16-6.49L239.16-6.49Q239.46-6.62 239.67-6.68 239.87-6.74 240.02-6.74L240.02-6.74Q240.26-6.74 240.35-6.52 240.43-6.3 240.52-5.75 240.61-5.2 240.78-4.27 240.95-3.34 241.34-1.93L241.34-1.93Q241.36-1.81 241.37-1.72 241.39-1.64 241.39-1.56L241.39-1.56Q241.39-1.22 241.13-1.07 240.87-0.93 240.29-0.73L240.29-0.73Q239.29-0.39 238.18-0.04 237.06 0.32 235.98 0.61 234.89 0.9 233.89 1.09 232.89 1.27 232.13 1.27L232.13 1.27Q228.06 1.27 226.19-0.76 224.32-2.78 224.32-6.93L224.32-6.93Q224.32-7.64 224.37-8.39 224.42-9.13 224.49-9.94L224.49-9.94Q224.74-12.38 224.92-14.56 225.1-16.75 225.3-18.75L225.3-18.75 222.73-18.75Q221.42-18.75 220.83-18.86 220.24-18.97 220.24-19.31L220.24-19.31Q220.24-19.41 220.49-19.84 220.73-20.26 221.11-20.86 221.49-21.46 221.93-22.14 222.37-22.83 222.77-23.43 223.17-24.02 223.47-24.46 223.76-24.9 223.83-25L223.83-25 225.57-25Q225.79-26.86 225.92-28.11 226.05-29.37 226.14-30.2 226.23-31.03 226.3-31.48 226.37-31.93 226.46-32.15 226.54-32.37 226.68-32.43 226.81-32.5 227.03-32.54L227.03-32.54Q228.13-32.76 229.15-32.95 230.18-33.13 231.21-33.33 232.23-33.52 233.29-33.78 234.36-34.03 235.5-34.38L235.5-34.38Q235.58-34.38 235.6-34.39 235.62-34.4 235.7-34.4L235.7-34.4Q235.99-34.4 235.99-34.2L235.99-34.2 235.99-34.16Q235.87-32.81 235.61-30.42 235.36-28.03 235.04-25L235.04-25 241.58-25Q241.78-25 241.96-24.87 242.14-24.73 242.14-24.41L242.14-24.41Q242.14-24.29 241.85-23.54 241.56-22.78 241.02-21.56L241.02-21.56 240.14-19.58Q239.97-19.21 239.79-19.04 239.6-18.87 239.04-18.82L239.04-18.82Z" fill="#2ecc71" data-fill-palette-color="primary"></path></g></svg></g></svg></g><g transform="matrix(1,0,0,1,60.31679999999997,113.42814673260852)"><svg viewBox="0 0 276.864 33.67030477682067" height="33.67030477682067" width="276.864"><g transform="matrix(1,0,0,1,0,0)"><svg width="276.864" viewBox="3.8299999999999996 -36.23 311.74 37.91" height="33.67030477682067" data-palette-color="#2ecc71"><path d="M4.27-0.37L3.86-9.08Q3.86-9.11 3.85-9.13 3.83-9.16 3.83-9.18L3.83-9.18Q3.83-9.59 4.27-9.59L4.27-9.59Q4.49-9.59 4.76-9.38L4.76-9.38Q6.08-8.13 7.69-7.4 9.3-6.67 11.21-6.67L11.21-6.67Q11.72-6.67 12.38-6.77 13.04-6.88 13.62-7.14 14.21-7.4 14.61-7.81 15.01-8.23 15.01-8.86L15.01-8.86Q15.01-9.57 14.67-10.13 14.33-10.69 13.77-11.08L13.77-11.08Q13.55-11.23 13.11-11.57 12.67-11.91 12.11-12.35 11.55-12.79 10.94-13.29 10.33-13.79 9.78-14.25 9.23-14.7 8.79-15.06 8.35-15.43 8.13-15.63L8.13-15.63Q6.69-16.7 5.85-17.8 5-18.9 4.57-20.09 4.13-21.29 4-22.57 3.88-23.85 3.88-25.29L3.88-25.29Q3.88-27.44 4.91-29.37 5.93-31.3 7.8-32.73 9.67-34.16 12.28-35 14.89-35.84 18.09-35.84L18.09-35.84Q18.48-35.84 19.26-35.75 20.04-35.67 20.98-35.47 21.92-35.28 22.9-34.94 23.88-34.59 24.68-34.06L24.68-34.06Q24.95-33.86 25.11-33.67 25.27-33.47 25.32-33.06L25.32-33.06Q25.44-31.08 25.51-29.16 25.59-27.25 25.71-25.1L25.71-25.1Q25.71-24.68 25.54-24.55 25.37-24.41 25.1-24.41L25.1-24.41Q24.83-24.41 24.68-24.56L24.68-24.56Q23.97-25.27 23.22-25.95 22.46-26.64 21.63-27.16 20.8-27.69 19.86-28 18.92-28.32 17.82-28.32L17.82-28.32Q17.16-28.32 16.5-28.21 15.84-28.1 15.31-27.81 14.77-27.51 14.44-27 14.11-26.49 14.11-25.71L14.11-25.71Q14.11-24.88 14.32-24.27 14.53-23.66 15.36-23.12L15.36-23.12 21.22-19.14Q22.83-17.99 23.83-16.86 24.83-15.72 25.39-14.6 25.95-13.48 26.16-12.39 26.37-11.3 26.37-10.25L26.37-10.25Q26.37-8.54 25.81-7.03 25.24-5.52 24.27-4.24 23.29-2.95 21.98-1.94 20.68-0.93 19.19-0.21 17.7 0.51 16.1 0.89 14.5 1.27 12.96 1.27L12.96 1.27Q11.77 1.27 10.61 1.23 9.45 1.2 8.35 1.04 7.25 0.88 6.23 0.55 5.2 0.22 4.27-0.37L4.27-0.37ZM60.74-25.37L60.74-25.37Q60.72-23.27 60.34-21.61 59.96-19.95 59.26-18.62 58.57-17.29 57.58-16.22 56.59-15.16 55.32-14.23L55.32-14.23Q52.88-12.48 49.97-11.58 47.07-10.69 44.14-10.69L44.14-10.69Q43.65-10.69 43.17-10.72 42.7-10.74 42.21-10.79L42.21-10.79 41.4-1.88 40.99-1.12Q40.94-1.03 40.16-0.73 39.38-0.44 38.21-0.05L38.21-0.05 36.67 0.46Q35.94 0.73 35.37 0.95 34.81 1.17 34.32 1.34 33.84 1.51 33.37 1.6 32.91 1.68 32.39 1.68L32.39 1.68Q32.05 1.68 31.86 1.51 31.66 1.34 31.66 0.85L31.66 0.85 31.93-3.32Q32-4.57 32.11-5.82 32.22-7.08 32.32-8.69L32.32-8.69 32.79-14.53Q32.93-16.31 33.05-18.09 33.18-19.87 33.3-21.48 33.42-23.1 33.52-24.5 33.62-25.9 33.69-26.95L33.69-26.95Q32.37-26.66 31.58-26.53 30.78-26.39 30.37-26.39L30.37-26.39Q29.86-26.39 29.86-26.83L29.86-26.83Q30.2-28.03 30.49-29.17L30.49-29.17Q30.76-30.15 31.04-31.19 31.32-32.23 31.52-32.93L31.52-32.93Q31.64-33.37 31.8-33.61 31.96-33.84 32.21-33.97 32.47-34.11 32.87-34.22 33.27-34.33 33.86-34.52L33.86-34.52Q34.32-34.67 35.17-34.85 36.01-35.03 37.09-35.22 38.18-35.4 39.45-35.57 40.72-35.74 42.03-35.88 43.33-36.01 44.6-36.1 45.87-36.18 46.99-36.18L46.99-36.18Q49.78-36.18 52.27-35.67 54.76-35.16 56.64-33.92 58.52-32.69 59.63-30.6 60.74-28.52 60.74-25.37ZM42.89-18.04L42.89-18.04Q42.89-17.77 42.99-17.57 43.09-17.36 43.53-17.36L43.53-17.36Q44.21-17.36 45.15-17.66 46.09-17.97 47.03-18.58 47.97-19.19 48.78-20.09 49.58-21 50-22.22L50-22.22Q50.17-22.71 50.28-23.46 50.39-24.22 50.39-25.24L50.39-25.24Q50.39-26.95 49.2-27.76 48.02-28.56 46.12-28.56L46.12-28.56Q45.8-28.56 45.4-28.53 44.99-28.49 44.64-28.39 44.28-28.3 44.04-28.16 43.8-28.03 43.77-27.81L43.77-27.81 43.72-27.27Q43.7-26.95 43.63-26.23 43.55-25.51 43.47-24.58 43.38-23.66 43.3-22.63 43.21-21.61 43.12-20.68 43.04-19.75 42.98-19.04 42.92-18.33 42.89-18.04ZM62.69 0.78L62.69 0.78 63.91-15.92Q64.52-24.32 64.81-28.25 65.11-32.18 65.11-32.15L65.11-32.15Q65.13-32.59 65.16-32.89 65.18-33.18 65.25-33.37 65.33-33.57 65.45-33.67 65.57-33.76 65.82-33.81L65.82-33.81 74.26-35.84Q74.58-35.94 74.92-35.94L74.92-35.94Q75.26-35.94 75.39-35.73 75.51-35.52 75.51-34.89L75.51-34.89Q75.34-33.37 75.24-32.06 75.14-30.74 75.08-29.54 75.02-28.34 74.97-27.23 74.92-26.12 74.85-25.02L74.85-25.02Q74.7-23.83 74.59-22.63 74.48-21.44 74.38-20.15 74.29-18.87 74.18-17.44 74.07-16.02 73.92-14.33L73.92-14.33 72.85-1.46Q72.82-1.25 72.76-1.04 72.7-0.83 72.43-0.71L72.43-0.71Q72.41-0.71 72.14-0.61 71.87-0.51 71.43-0.35 70.99-0.2 70.41-0.02 69.82 0.15 69.16 0.29L69.16 0.29Q68.06 0.54 67.24 0.78 66.43 1.03 65.79 1.23 65.16 1.44 64.62 1.56 64.08 1.68 63.54 1.68L63.54 1.68Q63.18 1.68 62.93 1.49 62.69 1.29 62.69 0.78ZM99.8-14.43L99.8-32.71Q99.99-33.52 100.14-33.89 100.29-34.25 100.77-34.38L100.77-34.38 107.1-35.86Q107.39-35.96 107.73-35.96L107.73-35.96Q108.05-35.96 108.2-35.74 108.34-35.52 108.34-34.91L108.34-34.91Q108.2-34.33 108.1-33.12 108-31.91 107.95-30.47 107.9-29.03 107.88-27.58 107.85-26.12 107.85-25.05L107.85-25.05 107.85-23.71Q107.85-22.19 107.83-20.41 107.81-18.63 107.77-16.8 107.73-14.97 107.68-13.18 107.63-11.4 107.59-9.84L107.59-9.84 107.44-5.66Q107.41-5.54 107.41-5.44 107.41-5.35 107.41-5.25L107.41-5.25 107.41-4.88Q107.41-4.47 107.43-4.19 107.44-3.91 107.44-3.69L107.44-3.69Q107.44-3.44 107.4-3.25 107.37-3.05 107.22-2.87 107.07-2.69 106.82-2.49 106.56-2.29 106.12-2L106.12-2Q105.88-1.83 105.31-1.5 104.75-1.17 104.07-0.76 103.39-0.34 102.65 0.1 101.92 0.54 101.31 0.89 100.7 1.25 100.32 1.46 99.94 1.68 99.94 1.68L99.94 1.68 88.62-15.75 87.59-1.46Q87.57-1.27 87.5-1.05 87.44-0.83 87.18-0.71L87.18-0.71Q86.96-0.61 86.42-0.4 85.88-0.2 85.16 0.07 84.44 0.34 83.65 0.62 82.85 0.9 82.15 1.14 81.44 1.37 80.89 1.51 80.34 1.66 80.14 1.66L80.14 1.66Q79.78 1.66 79.53 1.46 79.29 1.27 79.29 0.76L79.29 0.76Q79.53-2.29 79.85-5.9 80.17-9.5 80.46-13.28 80.75-17.07 81.01-20.84 81.27-24.61 81.44-28L81.44-28Q81.44-28.1 81.13-28.65 80.83-29.2 80.45-29.85 80.07-30.49 79.77-31.07 79.46-31.64 79.46-31.79L79.46-31.79Q79.46-31.96 79.64-32.1 79.83-32.25 80.24-32.5L80.24-32.5 86.76-36.18Q86.83-36.18 86.97-36.21 87.1-36.23 87.2-36.23L87.2-36.23Q87.47-36.23 87.63-36.17 87.79-36.11 87.96-35.79L87.96-35.79 99.8-14.43ZM153.06-17.5L157.87-33.13Q158-33.57 158.14-33.85 158.29-34.13 158.8-34.25L158.8-34.25 166-35.91Q166.05-35.91 166.13-35.94 166.2-35.96 166.25-35.96L166.25-35.96Q166.59-35.96 166.72-35.67 166.86-35.38 166.86-35.11L166.86-35.11Q166.86-35.06 166.85-34.91 166.83-34.77 166.81-34.72L166.81-34.72 156.7-4Q156.31-3 156.05-2.38 155.8-1.76 155.54-1.35 155.29-0.95 154.96-0.68 154.63-0.42 154.08-0.15 153.53 0.12 152.7 0.48 151.87 0.83 150.6 1.44L150.6 1.44Q150.16 1.66 149.91 1.66L149.91 1.66Q149.52 1.66 149.33 1.37 149.13 1.07 149.01 0.71L149.01 0.71 144.84-14.16 139.61-3.39Q139.49-3.1 139.05-2.61 138.61-2.12 138.06-1.61 137.51-1.1 136.96-0.62 136.41-0.15 136.07 0.15L136.07 0.15Q135.75 0.42 135.4 0.68 135.05 0.95 134.68 1.17 134.31 1.39 133.98 1.53 133.65 1.66 133.36 1.66L133.36 1.66Q132.73 1.66 132.53 0.95L132.53 0.95 123.06-32.45Q123.01-32.64 122.95-32.84 122.89-33.03 122.89-33.2L122.89-33.2Q122.89-33.81 123.18-34.23 123.47-34.64 124.21-34.94 124.94-35.23 126.16-35.41 127.38-35.6 129.26-35.72L129.26-35.72Q130.14-35.84 130.74-35.89 131.34-35.94 131.75-35.94L131.75-35.94Q132.46-35.94 132.68-35.72 132.9-35.5 133.07-34.99L133.07-34.99 138.1-15.63 142.27-22.8 140.59-30.15Q140.44-30.74 140.47-31.03L140.47-31.03Q140.47-31.59 140.76-31.93 141.05-32.28 141.74-32.5 142.42-32.71 143.53-32.89 144.64-33.06 146.25-33.28L146.25-33.28Q146.96-33.37 147.47-33.42 147.99-33.47 148.35-33.47L148.35-33.47Q149.08-33.47 149.35-33.25 149.62-33.03 149.74-32.54L149.74-32.54 153.06-17.5ZM167.86 0.78L167.86 0.78 169.08-15.92Q169.69-24.32 169.98-28.25 170.27-32.18 170.27-32.15L170.27-32.15Q170.3-32.59 170.32-32.89 170.35-33.18 170.42-33.37 170.49-33.57 170.61-33.67 170.74-33.76 170.98-33.81L170.98-33.81 179.43-35.84Q179.75-35.94 180.09-35.94L180.09-35.94Q180.43-35.94 180.55-35.73 180.67-35.52 180.67-34.89L180.67-34.89Q180.5-33.37 180.4-32.06 180.31-30.74 180.25-29.54 180.19-28.34 180.14-27.23 180.09-26.12 180.01-25.02L180.01-25.02Q179.87-23.83 179.76-22.63 179.65-21.44 179.55-20.15 179.45-18.87 179.34-17.44 179.23-16.02 179.09-14.33L179.09-14.33 178.01-1.46Q177.99-1.25 177.93-1.04 177.87-0.83 177.6-0.71L177.6-0.71Q177.57-0.71 177.3-0.61 177.04-0.51 176.6-0.35 176.16-0.2 175.57-0.02 174.99 0.15 174.33 0.29L174.33 0.29Q173.23 0.54 172.41 0.78 171.59 1.03 170.96 1.23 170.32 1.44 169.78 1.56 169.25 1.68 168.71 1.68L168.71 1.68Q168.34 1.68 168.1 1.49 167.86 1.29 167.86 0.78ZM189.51 0.88L189.51 0.78Q189.63-1 189.75-2.66 189.88-4.32 189.97-5.88L189.97-5.88 190.85-17.41Q191-18.73 191.1-19.81 191.19-20.9 191.25-21.94 191.32-22.97 191.38-24.04 191.44-25.1 191.51-26.39L191.51-26.39Q190.71-26.42 189.81-26.42 188.92-26.42 187.95-26.42L187.95-26.42 183.23-26.42Q182.97-26.42 182.9-26.62 182.84-26.83 182.84-27L182.84-27 182.84-27.17 185.53-34.23 185.5-34.33Q185.5-34.45 185.66-34.53 185.82-34.62 186.38-34.67L186.38-34.67Q189.75-34.86 192.91-35.05 196.08-35.23 199.16-35.38 202.25-35.52 205.34-35.67 208.43-35.82 211.7-35.94L211.7-35.94Q211.99-35.94 212.32-35.86 212.65-35.79 212.65-35.33L212.65-35.33Q212.65-35.28 212.63-35.23 212.6-35.18 212.6-35.13L212.6-35.13Q212.21-34.13 211.88-33.23 211.55-32.32 211.24-31.45 210.92-30.57 210.59-29.66 210.26-28.76 209.87-27.76L209.87-27.76Q209.85-27.73 209.77-27.53 209.7-27.32 209.55-27.06 209.41-26.81 209.16-26.59 208.92-26.37 208.55-26.34L208.55-26.34Q208.43-26.37 208.31-26.37 208.19-26.37 208.04-26.37L208.04-26.37 201.52-26.37Q201.4-25.12 201.29-23.73 201.18-22.34 201.03-21.02L201.03-21.02 199.25-1.95Q199.23-1.73 199.16-1.51 199.1-1.29 198.84-1.2L198.84-1.2 191.93 1.29Q191.66 1.39 191.22 1.54 190.78 1.68 190.36 1.68L190.36 1.68Q190.02 1.68 189.77 1.51 189.51 1.34 189.51 0.88L189.51 0.88ZM234.45-32.15L234.45-32.15Q234.45-33.03 234.61-33.36 234.77-33.69 235.26-33.81L235.26-33.81 243.66-35.84Q243.97-35.94 244.32-35.94L244.32-35.94Q244.66-35.94 244.78-35.73 244.9-35.52 244.9-34.89L244.9-34.89 244.61-31.05Q244.49-29.37 244.34-27.71 244.19-26.05 243.9-24.8L243.9-24.8 243.46-21.34Q243.27-19.8 243.1-18.01 242.92-16.21 242.73-13.99L242.73-13.99 241.58-1.95Q241.56-1.73 241.48-1.51 241.41-1.29 241.17-1.2L241.17-1.2Q241-1.12 240.37-0.88 239.75-0.63 238.9-0.32 238.04 0 237.06 0.35 236.09 0.71 235.21 1 234.33 1.29 233.65 1.49 232.96 1.68 232.72 1.68L232.72 1.68Q232.38 1.68 232.12 1.5 231.86 1.32 231.86 0.81L231.86 0.81Q231.86-2.15 232.21-5.24 232.55-8.33 232.82-11.38L232.82-11.38Q232.87-11.72 232.85-12.01 232.84-12.3 232.89-12.65L232.89-12.65 223.95-12.65 222.95-1.95Q222.93-1.73 222.87-1.53 222.81-1.32 222.54-1.2L222.54-1.2Q222.44-1.15 221.57-0.84 220.71-0.54 219.57-0.13 218.44 0.27 217.33 0.67 216.22 1.07 215.63 1.29L215.63 1.29Q215.34 1.42 214.91 1.55 214.48 1.68 214.07 1.68L214.07 1.68Q213.73 1.68 213.47 1.49 213.21 1.29 213.21 0.78L213.21 0.78Q213.21-0.39 213.3-1.89 213.38-3.39 213.51-5.04 213.63-6.69 213.8-8.42 213.97-10.16 214.14-11.84L214.14-11.84 214.19-12.55Q212.21-12.55 211.32-12.66 210.43-12.77 210.43-13.23L210.43-13.23Q210.43-13.55 210.8-14.06L210.8-14.06Q211.28-14.75 211.93-15.71 212.58-16.67 213.18-17.61 213.77-18.55 214.25-19.3 214.73-20.04 214.87-20.26L214.87-20.26 215.43-26.15Q215.43-26.2 215.48-26.88 215.53-27.56 215.61-28.5 215.68-29.44 215.76-30.44 215.85-31.45 215.92-32.15L215.92-32.15Q215.97-33.01 216.06-33.35 216.14-33.69 216.63-33.81L216.63-33.81 224.93-35.84Q225.25-35.94 225.59-35.94L225.59-35.94Q225.93-35.94 226.05-35.73 226.18-35.52 226.18-34.89L226.18-34.89Q226.01-33.13 225.91-31.69 225.81-30.25 225.7-29 225.59-27.76 225.47-26.64 225.35-25.51 225.13-24.34L225.13-24.34 224.64-20.56 233.5-20.65Q233.72-23.9 233.99-26.17 234.26-28.44 234.33-29.76L234.33-29.76Q234.4-31.01 234.43-31.54 234.45-32.08 234.45-32.15ZM289.28-34.91L289.28-34.91Q289.23-34.25 289.11-32.97 288.99-31.69 288.83-30.07 288.67-28.44 288.5-26.66 288.33-24.88 288.17-23.25 288.01-21.63 287.89-20.31 287.77-18.99 287.72-18.33L287.72-18.33Q287.21-13.13 285.97-9.41 284.74-5.69 282.74-3.32 280.74-0.95 277.94 0.16 275.15 1.27 271.48 1.27L271.48 1.27Q268.97 1.27 266.75 0.35 264.53-0.56 262.87-2.22 261.21-3.88 260.24-6.21 259.28-8.54 259.28-11.4L259.28-11.4Q259.28-11.77 259.34-12.73 259.4-13.7 259.51-15.09 259.62-16.48 259.75-18.25 259.89-20.02 260.03-22.02L260.03-22.02 260.33-26.07Q260.47-28.3 260.55-29.77 260.62-31.25 260.7-32.15 260.79-33.06 260.96-33.47 261.13-33.89 261.5-34.01L261.5-34.01 269.82-35.86Q270.14-35.96 270.48-35.96L270.48-35.96Q270.87-35.96 271.01-35.74 271.14-35.52 271.14-34.91L271.14-34.91 269.29-15.67Q269.24-14.82 269.12-13.82 268.99-12.82 268.99-11.77L268.99-11.77Q268.99-11.13 269.15-10.38 269.31-9.62 269.73-8.95 270.14-8.28 270.86-7.82 271.58-7.37 272.73-7.37L272.73-7.37Q274.12-7.37 274.98-7.97 275.83-8.57 276.34-9.56 276.85-10.55 277.09-11.8 277.32-13.06 277.47-14.38L277.47-14.38Q277.59-15.92 277.76-17.99 277.93-20.07 278.1-22.44L278.1-22.44 278.81-32.18Q278.86-32.62 278.87-32.91 278.88-33.2 278.93-33.4 278.98-33.59 279.14-33.69 279.3-33.79 279.64-33.84L279.64-33.84 287.96-35.86Q288.28-35.96 288.62-35.96L288.62-35.96Q288.96-35.96 289.12-35.75 289.28-35.55 289.28-34.91ZM293.48-0.37L293.06-9.08Q293.06-9.11 293.05-9.13 293.04-9.16 293.04-9.18L293.04-9.18Q293.04-9.59 293.48-9.59L293.48-9.59Q293.7-9.59 293.97-9.38L293.97-9.38Q295.29-8.13 296.9-7.4 298.51-6.67 300.41-6.67L300.41-6.67Q300.92-6.67 301.58-6.77 302.24-6.88 302.83-7.14 303.41-7.4 303.82-7.81 304.22-8.23 304.22-8.86L304.22-8.86Q304.22-9.57 303.88-10.13 303.54-10.69 302.98-11.08L302.98-11.08Q302.76-11.23 302.32-11.57 301.88-11.91 301.32-12.35 300.75-12.79 300.14-13.29 299.53-13.79 298.98-14.25 298.43-14.7 297.99-15.06 297.56-15.43 297.34-15.63L297.34-15.63Q295.9-16.7 295.05-17.8 294.21-18.9 293.77-20.09 293.33-21.29 293.21-22.57 293.09-23.85 293.09-25.29L293.09-25.29Q293.09-27.44 294.11-29.37 295.14-31.3 297.01-32.73 298.87-34.16 301.49-35 304.1-35.84 307.3-35.84L307.3-35.84Q307.69-35.84 308.47-35.75 309.25-35.67 310.19-35.47 311.13-35.28 312.11-34.94 313.08-34.59 313.89-34.06L313.89-34.06Q314.16-33.86 314.32-33.67 314.47-33.47 314.52-33.06L314.52-33.06Q314.65-31.08 314.72-29.16 314.79-27.25 314.91-25.1L314.91-25.1Q314.91-24.68 314.74-24.55 314.57-24.41 314.3-24.41L314.3-24.41Q314.04-24.41 313.89-24.56L313.89-24.56Q313.18-25.27 312.42-25.95 311.67-26.64 310.84-27.16 310.01-27.69 309.07-28 308.13-28.32 307.03-28.32L307.03-28.32Q306.37-28.32 305.71-28.21 305.05-28.1 304.51-27.81 303.98-27.51 303.65-27 303.32-26.49 303.32-25.71L303.32-25.71Q303.32-24.88 303.52-24.27 303.73-23.66 304.56-23.12L304.56-23.12 310.42-19.14Q312.03-17.99 313.03-16.86 314.04-15.72 314.6-14.6 315.16-13.48 315.37-12.39 315.57-11.3 315.57-10.25L315.57-10.25Q315.57-8.54 315.01-7.03 314.45-5.52 313.47-4.24 312.5-2.95 311.19-1.94 309.88-0.93 308.4-0.21 306.91 0.51 305.31 0.89 303.71 1.27 302.17 1.27L302.17 1.27Q300.97 1.27 299.81 1.23 298.65 1.2 297.56 1.04 296.46 0.88 295.43 0.55 294.41 0.22 293.48-0.37L293.48-0.37Z" opacity="1" transform="matrix(1,0,0,1,0,0)" fill="#2ecc71" class="slogan-text-1" data-fill-palette-color="secondary" id="text-1"></path></svg></g></svg></g></svg></g></svg></g><g transform="matrix(1,0,0,1,0,4.430605359463996)"><svg viewBox="0 0 114.76364046922629 138.2372407905012" height="138.2372407905012" width="114.76364046922629"><g><svg xmlns="http://www.w3.org/2000/svg" xmlns:xlink="http://www.w3.org/1999/xlink" version="1.1" x="0" y="0" viewBox="0 0 73.502 88.536" enable-background="new 0 0 73.502 88.536" xml:space="preserve" width="114.76364046922629" height="138.2372407905012" class="icon-icon-0" data-fill-palette-color="accent" id="icon-0"><path fill="#2ecc71" d="M13.284 65.032C5.168 58.291 0.001 48.125 0 36.751l0 0C0.003 16.453 16.452 0.003 36.751 0l0 0c20.294 0.003 36.747 16.453 36.751 36.751l0 0C73.499 48.049 68.4 58.154 60.377 64.896L36.751 88.536 13.284 65.032zM36.751 67.618c17.047-0.03 30.84-13.82 30.867-30.867l0 0c-0.027-17.05-13.82-30.839-30.867-30.869l0 0c-17.05 0.03-30.839 13.819-30.87 30.869l0 0C5.912 53.798 19.701 67.588 36.751 67.618L36.751 67.618zM13.046 36.751c0.003-13.092 10.611-23.703 23.705-23.703l0 0c13.089 0 23.7 10.611 23.703 23.703l0 0C60.451 49.843 49.84 60.453 36.751 60.453l0 0C23.657 60.453 13.049 49.843 13.046 36.751L13.046 36.751zM36.751 57.726c11.583-0.023 20.953-9.389 20.972-20.975l0 0c-0.019-11.583-9.389-20.956-20.972-20.976l0 0c-11.586 0.02-20.955 9.393-20.975 20.976l0 0C15.796 48.337 25.165 57.702 36.751 57.726L36.751 57.726zM22.085 36.751c0-8.102 6.566-14.664 14.664-14.667l0 0c8.1 0.003 14.664 6.565 14.667 14.667l0 0c-0.003 8.098-6.567 14.664-14.667 14.664l0 0C28.651 51.415 22.085 44.849 22.085 36.751L22.085 36.751z" data-fill-palette-color="accent"></path></svg></g></svg></g></svg></g><defs></defs></svg><rect width="395.52" height="109.19381257066837" fill="none" stroke="none" visibility="hidden"></rect></g></svg></g></svg>